<?xml version="1.0" encoding="UTF-8" standalone="no"?>
<!DOCTYPE svg PUBLIC "-//W3C//DTD SVG 1.1//EN"
 "http://www.w3.org/Graphics/SVG/1.1/DTD/svg11.dtd">
<!-- Generated by graphviz version 2.44.1 (20200629.0846)
 -->
<!-- Title: dependency&#45;cruiser output Pages: 1 -->
<svg width="505pt" height="258pt"
 viewBox="0.00 0.00 505.00 258.00" xmlns="http://www.w3.org/2000/svg" xmlns:xlink="http://www.w3.org/1999/xlink">
<g id="graph0" class="graph" transform="scale(1 1) rotate(0) translate(4 254)">
<title>dependency&#45;cruiser output</title>
<polygon fill="white" stroke="transparent" points="-4,4 -4,-254 501,-254 501,4 -4,4"/>
<g id="clust1" class="cluster">
<title>cluster_src</title>
<path fill="#ffffff" stroke="black" stroke-width="2" d="M20,-8C20,-8 477,-8 477,-8 483,-8 489,-14 489,-20 489,-20 489,-230 489,-230 489,-236 483,-242 477,-242 477,-242 20,-242 20,-242 14,-242 8,-236 8,-230 8,-230 8,-20 8,-20 8,-14 14,-8 20,-8"/>
<text text-anchor="middle" x="248.5" y="-230.8" font-family="Helvetica,sans-Serif" font-weight="bold" font-size="9.00">src</text>
</g>
<g id="clust2" class="cluster">
<title>cluster_src/server</title>
<path fill="#ffffff" stroke="black" stroke-width="2" d="M28,-16C28,-16 469,-16 469,-16 475,-16 481,-22 481,-28 481,-28 481,-204 481,-204 481,-210 475,-216 469,-216 469,-216 28,-216 28,-216 22,-216 16,-210 16,-204 16,-204 16,-28 16,-28 16,-22 22,-16 28,-16"/>
<text text-anchor="middle" x="248.5" y="-204.8" font-family="Helvetica,sans-Serif" font-weight="bold" font-size="9.00">server</text>
</g>
<g id="clust3" class="cluster">
<title>cluster_src/server/errors</title>
<path fill="#ffffff" stroke="black" stroke-width="2" d="M271.5,-48C271.5,-48 362.5,-48 362.5,-48 368.5,-48 374.5,-54 374.5,-60 374.5,-60 374.5,-88 374.5,-88 374.5,-94 368.5,-100 362.5,-100 362.5,-100 271.5,-100 271.5,-100 265.5,-100 259.5,-94 259.5,-88 259.5,-88 259.5,-60 259.5,-60 259.5,-54 265.5,-48 271.5,-48"/>
<text text-anchor="middle" x="317" y="-88.8" font-family="Helvetica,sans-Serif" font-weight="bold" font-size="9.00">errors</text>
</g>
<g id="clust4" class="cluster">
<title>cluster_src/server/middleware</title>
<path fill="#ffffff" stroke="black" stroke-width="2" d="M165,-24C165,-24 235,-24 235,-24 241,-24 247,-30 247,-36 247,-36 247,-64 247,-64 247,-70 241,-76 235,-76 235,-76 165,-76 165,-76 159,-76 153,-70 153,-64 153,-64 153,-36 153,-36 153,-30 159,-24 165,-24"/>
<text text-anchor="middle" x="200" y="-64.8" font-family="Helvetica,sans-Serif" font-weight="bold" font-size="9.00">middleware</text>
</g>
<g id="clust5" class="cluster">
<title>cluster_src/server/routes</title>
<path fill="#ffffff" stroke="black" stroke-width="2" d="M165.5,-84C165.5,-84 234.5,-84 234.5,-84 240.5,-84 246.5,-90 246.5,-96 246.5,-96 246.5,-154 246.5,-154 246.5,-160 240.5,-166 234.5,-166 234.5,-166 165.5,-166 165.5,-166 159.5,-166 153.5,-160 153.5,-154 153.5,-154 153.5,-96 153.5,-96 153.5,-90 159.5,-84 165.5,-84"/>
<text text-anchor="middle" x="200" y="-154.8" font-family="Helvetica,sans-Serif" font-weight="bold" font-size="9.00">routes</text>
</g>
<g id="clust6" class="cluster">
<title>cluster_src/server/services</title>
<path fill="#ffffff" stroke="black" stroke-width="2" d="M267,-108C267,-108 461,-108 461,-108 467,-108 473,-114 473,-120 473,-120 473,-178 473,-178 473,-184 467,-190 461,-190 461,-190 267,-190 267,-190 261,-190 255,-184 255,-178 255,-178 255,-120 255,-120 255,-114 261,-108 267,-108"/>
<text text-anchor="middle" x="364" y="-178.8" font-family="Helvetica,sans-Serif" font-weight="bold" font-size="9.00">services</text>
</g>
<!-- src/server/app.js -->
<g id="node1" class="node">
<title>src/server/app.js</title>
<g id="a_node1"><a xlink:href="src/server/app.js" xlink:title="app.js">
<path fill="#ffffcc" stroke="black" d="M139,-140C139,-140 97,-140 97,-140 94,-140 91,-137 91,-134 91,-134 91,-128 91,-128 91,-125 94,-122 97,-122 97,-122 139,-122 139,-122 142,-122 145,-125 145,-128 145,-128 145,-134 145,-134 145,-137 142,-140 139,-140"/>
<text text-anchor="middle" x="118" y="-128.8" font-family="Helvetica,sans-Serif" font-size="9.00">app.js</text>
</a>
</g>
</g>
<!-- src/server/middleware/errorHandler.js -->
<g id="node2" class="node">
<title>src/server/middleware/errorHandler.js</title>
<g id="a_node2"><a xlink:href="src/server/middleware/errorHandler.js" xlink:title="errorHandler.js">
<path fill="#ffffcc" stroke="black" d="M233,-50C233,-50 167,-50 167,-50 164,-50 161,-47 161,-44 161,-44 161,-38 161,-38 161,-35 164,-32 167,-32 167,-32 233,-32 233,-32 236,-32 239,-35 239,-38 239,-38 239,-44 239,-44 239,-47 236,-50 233,-50"/>
<text text-anchor="middle" x="200" y="-38.8" font-family="Helvetica,sans-Serif" font-size="9.00">errorHandler.js</text>
</a>
</g>
</g>
<!-- src/server/app.js&#45;&gt;src/server/middleware/errorHandler.js -->
<g id="edge1" class="edge">
<title>src/server/app.js&#45;&gt;src/server/middleware/errorHandler.js</title>
<path fill="none" stroke="#000000" stroke-width="2" stroke-opacity="0.200000" d="M124.36,-121.64C130.57,-111.19 141.43,-94.03 153,-81 161.77,-71.12 172.93,-61.36 182.06,-53.95"/>
<polygon fill="#000000" fill-opacity="0.200000" stroke="#000000" stroke-width="2" stroke-opacity="0.200000" points="183.52,-55.48 186.9,-50.1 180.9,-52.2 183.52,-55.48"/>
</g>
<!-- src/server/routes/healthCheck.js -->
<g id="node3" class="node">
<title>src/server/routes/healthCheck.js</title>
<g id="a_node3"><a xlink:href="src/server/routes/healthCheck.js" xlink:title="healthCheck.js">
<path fill="#ffffcc" stroke="black" d="M232.5,-140C232.5,-140 167.5,-140 167.5,-140 164.5,-140 161.5,-137 161.5,-134 161.5,-134 161.5,-128 161.5,-128 161.5,-125 164.5,-122 167.5,-122 167.5,-122 232.5,-122 232.5,-122 235.5,-122 238.5,-125 238.5,-128 238.5,-128 238.5,-134 238.5,-134 238.5,-137 235.5,-140 232.5,-140"/>
<text text-anchor="middle" x="200" y="-128.8" font-family="Helvetica,sans-Serif" font-size="9.00">healthCheck.js</text>
</a>
</g>
</g>
<!-- src/server/app.js&#45;&gt;src/server/routes/healthCheck.js -->
<g id="edge2" class="edge">
<title>src/server/app.js&#45;&gt;src/server/routes/healthCheck.js</title>
<path fill="none" stroke="#000000" stroke-width="2" stroke-opacity="0.200000" d="M145.19,-131C148.44,-131 151.83,-131 155.25,-131"/>
<polygon fill="#000000" fill-opacity="0.200000" stroke="#000000" stroke-width="2" stroke-opacity="0.200000" points="155.43,-133.1 161.43,-131 155.43,-128.9 155.43,-133.1"/>
</g>
<!-- src/server/routes/notFound.js -->
<g id="node4" class="node">
<title>src/server/routes/notFound.js</title>
<g id="a_node4"><a xlink:href="src/server/routes/notFound.js" xlink:title="notFound.js">
<path fill="#ffffcc" stroke="black" d="M226.5,-110C226.5,-110 173.5,-110 173.5,-110 170.5,-110 167.5,-107 167.5,-104 167.5,-104 167.5,-98 167.5,-98 167.5,-95 170.5,-92 173.5,-92 173.5,-92 226.5,-92 226.5,-92 229.5,-92 232.5,-95 232.5,-98 232.5,-98 232.5,-104 232.5,-104 232.5,-107 229.5,-110 226.5,-110"/>
<text text-anchor="middle" x="200" y="-98.8" font-family="Helvetica,sans-Serif" font-size="9.00">notFound.js</text>
</a>
</g>
</g>
<!-- src/server/app.js&#45;&gt;src/server/routes/notFound.js -->
<g id="edge3" class="edge">
<title>src/server/app.js&#45;&gt;src/server/routes/notFound.js</title>
<path fill="none" stroke="#000000" stroke-width="2" stroke-opacity="0.200000" d="M138.64,-121.94C143.31,-119.89 148.3,-117.8 153,-116 156.5,-114.66 160.18,-113.33 163.87,-112.05"/>
<polygon fill="#000000" fill-opacity="0.200000" stroke="#000000" stroke-width="2" stroke-opacity="0.200000" points="164.64,-114.01 169.64,-110.09 163.29,-110.03 164.64,-114.01"/>
</g>
<!-- src/server/services/loggerService.js -->
<g id="node5" class="node">
<title>src/server/services/loggerService.js</title>
<g id="a_node5"><a xlink:href="src/server/services/loggerService.js" xlink:title="loggerService.js">
<path fill="#ffffcc" stroke="black" d="M352.5,-164C352.5,-164 281.5,-164 281.5,-164 278.5,-164 275.5,-161 275.5,-158 275.5,-158 275.5,-152 275.5,-152 275.5,-149 278.5,-146 281.5,-146 281.5,-146 352.5,-146 352.5,-146 355.5,-146 358.5,-149 358.5,-152 358.5,-152 358.5,-158 358.5,-158 358.5,-161 355.5,-164 352.5,-164"/>
<text text-anchor="middle" x="317" y="-152.8" font-family="Helvetica,sans-Serif" font-size="9.00">loggerService.js</text>
</a>
</g>
</g>
<!-- src/server/app.js&#45;&gt;src/server/services/loggerService.js -->
<g id="edge4" class="edge">
<title>src/server/app.js&#45;&gt;src/server/services/loggerService.js</title>
<path fill="none" stroke="#000000" stroke-width="2" stroke-opacity="0.200000" d="M124.09,-140.24C129.77,-149.48 139.91,-163.15 153,-169 191.14,-186.05 205.43,-173.17 247,-169 251.74,-168.52 259.99,-167.04 269.17,-165.21"/>
<polygon fill="#000000" fill-opacity="0.200000" stroke="#000000" stroke-width="2" stroke-opacity="0.200000" points="269.85,-167.21 275.31,-163.96 269.01,-163.1 269.85,-167.21"/>
</g>
<!-- src/server/errors/HealthCheckError.js -->
<g id="node6" class="node">
<title>src/server/errors/HealthCheckError.js</title>
<g id="a_node6"><a xlink:href="src/server/errors/HealthCheckError.js" xlink:title="HealthCheckError.js">
<path fill="#ffffcc" stroke="black" d="M360.5,-74C360.5,-74 273.5,-74 273.5,-74 270.5,-74 267.5,-71 267.5,-68 267.5,-68 267.5,-62 267.5,-62 267.5,-59 270.5,-56 273.5,-56 273.5,-56 360.5,-56 360.5,-56 363.5,-56 366.5,-59 366.5,-62 366.5,-62 366.5,-68 366.5,-68 366.5,-71 363.5,-74 360.5,-74"/>
<text text-anchor="middle" x="317" y="-62.8" font-family="Helvetica,sans-Serif" font-size="9.00">HealthCheckError.js</text>
</a>
</g>
</g>
<!-- src/server/routes/healthCheck.js&#45;&gt;src/server/errors/HealthCheckError.js -->
<g id="edge5" class="edge">
<title>src/server/routes/healthCheck.js&#45;&gt;src/server/errors/HealthCheckError.js</title>
<path fill="none" stroke="#000000" stroke-width="2" stroke-opacity="0.200000" d="M236.77,-121.87C240.39,-120.21 243.87,-118.27 247,-116 251.89,-112.45 250.62,-109.17 255,-105 266.45,-94.09 281.24,-84.31 293.39,-77.15"/>
<polygon fill="#000000" fill-opacity="0.200000" stroke="#000000" stroke-width="2" stroke-opacity="0.200000" points="294.62,-78.86 298.77,-74.05 292.52,-75.22 294.62,-78.86"/>
</g>
<!-- src/server/services/healthCheckService.js -->
<g id="node7" class="node">
<title>src/server/services/healthCheckService.js</title>
<g id="a_node7"><a xlink:href="src/server/services/healthCheckService.js" xlink:title="healthCheckService.js">
<path fill="#ffffcc" stroke="black" d="M365,-134C365,-134 269,-134 269,-134 266,-134 263,-131 263,-128 263,-128 263,-122 263,-122 263,-119 266,-116 269,-116 269,-116 365,-116 365,-116 368,-116 371,-119 371,-122 371,-122 371,-128 371,-128 371,-131 368,-134 365,-134"/>
<text text-anchor="middle" x="317" y="-122.8" font-family="Helvetica,sans-Serif" font-size="9.00">healthCheckService.js</text>
</a>
</g>
</g>
<!-- src/server/routes/healthCheck.js&#45;&gt;src/server/services/healthCheckService.js -->
<g id="edge6" class="edge">
<title>src/server/routes/healthCheck.js&#45;&gt;src/server/services/healthCheckService.js</title>
<path fill="none" stroke="#000000" stroke-width="2" stroke-opacity="0.200000" d="M238.66,-129.04C244.45,-128.73 250.56,-128.41 256.69,-128.09"/>
<polygon fill="#000000" fill-opacity="0.200000" stroke="#000000" stroke-width="2" stroke-opacity="0.200000" points="256.94,-130.18 262.82,-127.77 256.72,-125.99 256.94,-130.18"/>
</g>
<!-- src/server/services/configService.js -->
<g id="node9" class="node">
<title>src/server/services/configService.js</title>
<g id="a_node9"><a xlink:href="src/server/services/configService.js" xlink:title="configService.js">
<path fill="#ffffcc" stroke="black" d="M459,-164C459,-164 390,-164 390,-164 387,-164 384,-161 384,-158 384,-158 384,-152 384,-152 384,-149 387,-146 390,-146 390,-146 459,-146 459,-146 462,-146 465,-149 465,-152 465,-152 465,-158 465,-158 465,-161 462,-164 459,-164"/>
<text text-anchor="middle" x="424.5" y="-152.8" font-family="Helvetica,sans-Serif" font-size="9.00">configService.js</text>
</a>
</g>
</g>
<!-- src/server/services/loggerService.js&#45;&gt;src/server/services/configService.js -->
<g id="edge10" class="edge">
<title>src/server/services/loggerService.js&#45;&gt;src/server/services/configService.js</title>
<path fill="none" stroke="#000000" stroke-width="2" stroke-opacity="0.200000" d="M358.79,-155C364.96,-155 371.37,-155 377.64,-155"/>
<polygon fill="#000000" fill-opacity="0.200000" stroke="#000000" stroke-width="2" stroke-opacity="0.200000" points="377.86,-157.1 383.86,-155 377.86,-152.9 377.86,-157.1"/>
</g>
<!-- src/server/services/healthCheckService.js&#45;&gt;src/server/services/configService.js -->
<g id="edge9" class="edge">
<title>src/server/services/healthCheckService.js&#45;&gt;src/server/services/configService.js</title>
<path fill="none" stroke="#000000" stroke-width="2" stroke-opacity="0.200000" d="M353.02,-134.08C360.14,-135.99 367.57,-138.02 374.5,-140 379.07,-141.31 383.87,-142.72 388.6,-144.14"/>
<polygon fill="#000000" fill-opacity="0.200000" stroke="#000000" stroke-width="2" stroke-opacity="0.200000" points="388.18,-146.21 394.53,-145.94 389.4,-142.19 388.18,-146.21"/>
</g>
<!-- src/server/server.js -->
<g id="node8" class="node">
<title>src/server/server.js</title>
<g id="a_node8"><a xlink:href="src/server/server.js" xlink:title="server.js">
<path fill="#ffffcc" stroke="black" d="M72,-165C72,-165 30,-165 30,-165 27,-165 24,-162 24,-159 24,-159 24,-153 24,-153 24,-150 27,-147 30,-147 30,-147 72,-147 72,-147 75,-147 78,-150 78,-153 78,-153 78,-159 78,-159 78,-162 75,-165 72,-165"/>
<text text-anchor="middle" x="51" y="-153.8" font-family="Helvetica,sans-Serif" font-size="9.00">server.js</text>
</a>
</g>
</g>
<!-- src/server/server.js&#45;&gt;src/server/app.js -->
<g id="edge7" class="edge">
<title>src/server/server.js&#45;&gt;src/server/app.js</title>
<path fill="none" stroke="#000000" stroke-width="2" stroke-opacity="0.200000" d="M75.47,-146.97C79.38,-145.47 83.47,-143.89 87.51,-142.34"/>
<polygon fill="#000000" fill-opacity="0.200000" stroke="#000000" stroke-width="2" stroke-opacity="0.200000" points="88.5,-144.21 93.35,-140.1 87,-140.29 88.5,-144.21"/>
</g>
<!-- src/server/server.js&#45;&gt;src/server/services/configService.js -->
<g id="edge8" class="edge">
<title>src/server/server.js&#45;&gt;src/server/services/configService.js</title>
<path fill="none" stroke="#000000" stroke-width="2" stroke-opacity="0.200000" d="M78.35,-163.03C98.6,-168.05 127.35,-174.36 153,-177 250.98,-187.08 277.53,-187.24 374.5,-170 380.35,-168.96 386.48,-167.44 392.34,-165.77"/>
<polygon fill="#000000" fill-opacity="0.200000" stroke="#000000" stroke-width="2" stroke-opacity="0.200000" points="392.95,-167.78 398.1,-164.05 391.75,-163.75 392.95,-167.78"/>
</g>
</g>
</svg>
